# xmcd
#
# Track frame offsets:
#	150
#	17266
#	38803
#	54118
#	71080
#	86310
#	109394
#	116670
#	140141
#	160903
#	184866
#	201464
#
# Disc length: 3002 seconds
#
# Revision: 0
# Processed by: cddbd v1.5.1PL0 Copyright (c) Steve Scherf et al.
# Submitted via: audiograbber 1.83.01
#
DISCID=a40bb80c
DTITLE=The Bosmas - Ministry in Song
DYEAR=2003
DGENRE=Gospel
TTITLE0=Wait
TTITLE1=At the Cross
TTITLE2=What Love is This
TTITLE3=Abide with Me
TTITLE4=I believe in a Hill Called Mount Calvary
TTITLE5=Loving God, Loving Each Other
TTITLE6=All
TTITLE7=Brand New
TTITLE8=Yes I Know
TTITLE9=I'll Worship Only at the Feet of Jesus
TTITLE10=Forever Endeavor
TTITLE11=Nearer, My God, to Thee
EXTD=Copyright 2003 Rhythm-Tap
EXTT0=Copyright 2003 Rhythm-Tap\nAlex Schrader
EXTT1=Copyright 1997 Gaither Music Company (ASCAP]\narr. Alex Schrader
EXTT2=Copyright 2002 Rhythm-Tap\nAlex Schrader
EXTT3=Copyright 2003 Rhythm-Tap\narr. Alex Schrader
EXTT4=Copyright 1968 Gaither Music Company (ASCAP]\narr. Alex Schrader
EXTT5=Copyright 1997 Gaither Music Company (ASCAP]\narr. Alex Schrader
EXTT6=Copyright 2002 Rhythm-Tap\nAlex Schrader
EXTT7=Copyright 2002 Rhythm-Tap\nAlex Schrader
EXTT8=Copyright 1995 Gaither Music Company (ASCAP]\narr. Alex Schrader
EXTT9=Copyright 1991 Gaither Music Company (ASCAP]\narr. Alex Schrader
EXTT10=Copyright 2002 Rhythm-Tap\narr. Alex Schrader
EXTT11=Copyright 2003 Rhythm-Tap\narr. Lee Bosma
PLAYORDER=
